HIERARCHY
ROOT Hips
{
	OFFSET 0.000000 8.830580 0.000000
	CHANNELS 6 Xposition Yposition Zposition Zrotation Yrotation Xrotation 
	JOINT Spine
	{
		OFFSET 0.000000 0.010000 0.000000
		CHANNELS 3 Zrotation Yrotation Xrotation
		JOINT Spine1
		{
			OFFSET 0.000000 2.459130 0.000000
			CHANNELS 3 Zrotation Yrotation Xrotation
			JOINT Neck
			{
				OFFSET 0.000000 2.484630 0.000000
				CHANNELS 3 Zrotation Yrotation Xrotation
				JOINT Head_virtual
				{
					OFFSET 0.000000 0.000000 0.000000
					CHANNELS 3 Zrotation Yrotation Xrotation
					JOINT Head
					{
						OFFSET 0.000000 0.927525 0.000000
						CHANNELS 3 Zrotation Yrotation Xrotation
						End Site
						{
							OFFSET 0.000000 0.000000 0.000000
						}
					}
				}
				JOINT LeftUpArm_virtual
				{
					OFFSET 0.000000 0.000000 0.000000
					CHANNELS 3 Zrotation Yrotation Xrotation
					JOINT LeftUpArm
					{
						OFFSET 1.248820 0.000000 0.000000
						CHANNELS 3 Zrotation Yrotation Xrotation
						JOINT LeftForeArm
						{
							OFFSET 2.597580 0.000000 0.000000
							CHANNELS 3 Zrotation Yrotation Xrotation
							JOINT LeftHand
							{
								OFFSET 2.455420 0.000000 0.000000
								CHANNELS 3 Zrotation Yrotation Xrotation
								End Site
								{
									OFFSET 0.000000 0.000000 0.000000
								}
							}
						}
					}
				}
				JOINT RightUpArm_virtual
				{
					OFFSET -0.000000 -0.000000 -0.000000
					CHANNELS 3 Zrotation Yrotation Xrotation
					JOINT RightUpArm
					{
						OFFSET -1.248820 -0.000000 -0.000000
						CHANNELS 3 Zrotation Yrotation Xrotation
						JOINT RightForeArm
						{
							OFFSET -2.597580 -0.000000 -0.000000
							CHANNELS 3 Zrotation Yrotation Xrotation
							JOINT RightHand
							{
								OFFSET -2.455420 -0.000000 -0.000000
								CHANNELS 3 Zrotation Yrotation Xrotation
								End Site
								{
									OFFSET 0.000000 0.000000 0.000000
								}
							}
						}
					}
				}
			}
		}
	}
	JOINT LeftUpLeg
	{
		OFFSET 1.271939 0.000000 0.000000
		CHANNELS 3 Zrotation Yrotation Xrotation
		JOINT LeftLowLeg
		{
			OFFSET 0.000000 -4.342910 0.000000
			CHANNELS 3 Zrotation Yrotation Xrotation
			JOINT LeftFoot
			{
				OFFSET 0.000000 -4.487670 0.000000
				CHANNELS 3 Zrotation Yrotation Xrotation
				JOINT LeftToeBase
				{
					OFFSET 0.000000 0.000000 1.515070
					CHANNELS 3 Zrotation Yrotation Xrotation
					End Site
					{
						OFFSET 0.000000 0.000000 0.000000
					}
				}
			}
		}
	}
	JOINT RightUpLeg
	{
		OFFSET -1.271939 0.000000 0.000000
		CHANNELS 3 Zrotation Yrotation Xrotation
		JOINT RightLowLeg
		{
			OFFSET 0.000000 -4.342910 0.000000
			CHANNELS 3 Zrotation Yrotation Xrotation
			JOINT RightFoot
			{
				OFFSET 0.000000 -4.487670 0.000000
				CHANNELS 3 Zrotation Yrotation Xrotation
				JOINT RightToeBase
				{
					OFFSET 0.000000 0.000000 1.515070
					CHANNELS 3 Zrotation Yrotation Xrotation
					End Site
					{
						OFFSET 0.000000 0.000000 0.000000
					}
				}
			}
		}
	}
}
MOTION
Frames: 10
Frame Time: 0.041667
-18.425671 9.234206 40.199934 -175.860148 -3.092237 -175.538899 2.994785 -2.505067 -6.958112 -0.449026 -2.686415 3.365643 0.000000 0.000000 0.000000 -2.304587 3.058045 -3.065862 6.887397 7.221851 -48.593251 0.875003 16.619301 -4.948830 -7.249620 -7.726590 -30.814699 0.000000 -21.164700 0.000000 30.364500 7.753030 23.968399 7.275770 -12.887800 -0.754856 5.432600 2.019910 -37.894699 0.000000 22.892599 0.000000 -19.294399 -4.099040 28.948099 5.636557 -1.288112 -3.807433 0.000000 0.000000 6.877660 -0.451750 -3.041409 7.838470 0.000000 0.000000 -25.687200 1.637773 6.203761 -1.077722 0.000000 0.000000 6.866470 7.918424 -6.965674 9.412841 0.000000 0.000000 -27.899400 
-18.425973 9.234159 40.199230 -175.863469 -3.115992 -175.543370 3.005064 -2.515245 -6.976034 -0.448628 -2.698369 3.364225 0.000000 0.000000 0.000000 -2.339840 3.087204 -3.097740 6.938298 7.202730 -48.580022 0.842819 16.608999 -4.955780 -7.193870 -7.684850 -30.875900 0.000000 -21.094200 0.000000 30.078800 7.379950 23.991600 7.266310 -12.903600 -0.769840 5.448890 2.041280 -37.905899 0.000000 22.900400 0.000000 -19.107599 -4.144860 28.890800 5.632887 -1.300457 -3.805632 0.000000 0.000000 6.880260 -0.452648 -3.048334 7.838471 0.000000 0.000000 -25.695400 1.636081 6.195022 -1.062857 0.000000 0.000000 6.858850 7.932053 -6.977660 9.405224 0.000000 0.000000 -27.885200 
-18.426247 9.234052 40.198617 -175.865325 -3.140729 -175.551424 3.014532 -2.524320 -6.981168 -0.452033 -2.709349 3.342791 0.000000 0.000000 0.000000 -2.329960 3.083437 -3.100933 6.957114 7.203304 -48.573082 0.830944 16.600401 -4.955210 -7.156410 -7.665050 -30.797501 0.000000 -21.081200 0.000000 30.073999 7.395650 23.925100 7.272920 -12.930700 -0.766225 5.437500 2.091670 -37.944698 0.000000 22.860201 0.000000 -19.087900 -4.141590 28.955900 5.631584 -1.314053 -3.801821 0.000000 0.000000 6.883370 -0.447301 -3.060000 7.836403 0.000000 0.000000 -25.688600 1.636494 6.161709 -1.042191 0.000000 0.000000 6.848970 7.925449 -6.970773 9.406546 0.000000 0.000000 -27.920500 
-18.426279 9.233987 40.198205 -175.870343 -3.150242 -175.563019 3.011508 -2.532876 -6.984948 -0.452952 -2.717240 3.341221 0.000000 0.000000 0.000000 -2.298897 3.062612 -3.121644 6.943065 7.213208 -48.557906 0.850174 16.622200 -4.960020 -7.187460 -7.674540 -30.860901 0.000000 -21.091200 0.000000 30.080601 7.387510 23.951000 7.279920 -12.919200 -0.761760 5.422880 2.058820 -37.854301 0.000000 22.833500 0.000000 -19.072500 -4.001460 28.947399 5.626532 -1.314510 -3.790009 0.000000 0.000000 6.883600 -0.447330 -3.071303 7.836517 0.000000 0.000000 -25.695300 1.633980 6.143243 -1.036292 0.000000 0.000000 6.869950 7.926923 -6.962185 9.390784 0.000000 0.000000 -27.898600 
-18.426395 9.233918 40.197880 -175.871674 -3.157683 -175.585000 3.013440 -2.530461 -6.976186 -0.443944 -2.715355 3.318800 0.000000 0.000000 0.000000 -2.249214 3.002219 -3.124852 6.931401 7.198771 -48.553497 0.865816 16.610300 -4.969400 -7.228770 -7.668630 -30.972300 0.000000 -21.101700 0.000000 30.082199 7.396280 23.995600 7.266110 -12.925400 -0.754399 5.438490 2.062550 -37.858700 0.000000 22.898399 0.000000 -19.195999 -4.242260 28.900700 5.623857 -1.313450 -3.772002 0.000000 0.000000 6.891470 -0.441562 -3.076899 7.832713 0.000000 0.000000 -25.702200 1.635545 6.162392 -1.014040 0.000000 0.000000 6.875110 7.932450 -6.983983 9.381632 0.000000 0.000000 -27.889100 
-18.426495 9.233930 40.197595 -175.873854 -3.167019 -175.608829 3.017928 -2.536368 -6.966959 -0.448051 -2.722272 3.312202 0.000000 0.000000 0.000000 -2.210741 2.977209 -3.125054 6.900923 7.224535 -48.586207 0.882845 16.612700 -4.957040 -7.239260 -7.647360 -30.999399 0.000000 -21.113100 0.000000 30.070801 7.442960 24.002701 7.275280 -12.930200 -0.753354 5.426180 2.069560 -37.884300 0.000000 22.889200 0.000000 -18.873199 -4.038740 29.639700 5.620507 -1.327688 -3.759601 0.000000 0.000000 6.913230 -0.450154 -3.076229 7.824135 0.000000 0.000000 -25.700000 1.635418 6.183828 -0.993435 0.000000 0.000000 6.889630 7.941337 -7.002563 9.371538 0.000000 0.000000 -27.894700 
-18.426538 9.233791 40.197501 -175.881892 -3.172414 -175.664274 3.008316 -2.540508 -6.937442 -0.437599 -2.724589 3.333383 0.000000 0.000000 0.000000 -2.191684 2.951986 -3.174145 6.907903 7.216689 -48.602084 0.876399 16.598499 -4.955230 -7.190700 -7.604170 -30.900000 0.000000 -21.087200 0.000000 30.067400 7.457470 24.025000 7.291120 -12.938100 -0.773067 5.367990 2.074590 -37.816101 0.000000 22.858700 0.000000 -19.238600 -4.113470 28.583500 5.611277 -1.353065 -3.726000 0.000000 0.000000 6.954840 -0.440987 -3.061714 7.813402 0.000000 0.000000 -25.709000 1.632455 6.185754 -0.939993 0.000000 0.000000 6.897800 7.960365 -6.998839 9.357325 0.000000 0.000000 -27.897000 
-18.426573 9.233743 40.197930 -175.887693 -3.168954 -175.715753 3.003137 -2.539800 -6.897358 -0.441302 -2.723174 3.357626 0.000000 0.000000 0.000000 -2.178531 2.952530 -3.236118 6.923041 7.231521 -48.624069 0.868602 16.599300 -4.973290 -7.141600 -7.571840 -30.814301 0.000000 -21.075500 0.000000 30.108200 7.445550 24.060200 7.309000 -12.935200 -0.777902 5.326900 2.067030 -37.831600 0.000000 22.845100 0.000000 -19.151899 -4.174570 28.902500 5.602753 -1.381400 -3.697536 0.000000 0.000000 6.998230 -0.432849 -3.033790 7.800340 0.000000 0.000000 -25.705100 1.629686 6.181413 -0.894031 0.000000 0.000000 6.905470 7.983335 -6.984035 9.349246 0.000000 0.000000 -27.893700 
-18.426653 9.233675 40.198466 -175.897380 -3.161540 -175.762819 2.985483 -2.530172 -6.865185 -0.429776 -2.710177 3.397074 0.000000 0.000000 0.000000 -2.160444 2.943335 -3.315028 6.919039 7.242690 -48.634233 0.852908 16.586399 -4.961980 -7.105480 -7.542620 -30.876499 0.000000 -21.104401 0.000000 30.111601 7.428980 24.068600 7.314550 -12.941900 -0.792646 5.291020 2.034860 -37.824299 0.000000 22.862400 0.000000 -19.241501 -4.181130 28.492800 5.591719 -1.438588 -3.667868 0.000000 0.000000 7.031400 -0.438220 -2.981215 7.792461 0.000000 0.000000 -25.707400 1.621775 6.179676 -0.861597 0.000000 0.000000 6.929680 7.987068 -6.967722 9.333117 0.000000 0.000000 -27.887200 
-18.426987 9.233594 40.199383 -175.899973 -3.147586 -175.798646 2.977086 -2.522509 -6.846035 -0.426137 -2.700846 3.441998 0.000000 0.000000 0.000000 -2.142959 2.942304 -3.364562 6.916438 7.267404 -48.672334 0.848346 16.596901 -4.991120 -7.089620 -7.527600 -30.936100 0.000000 -21.137199 0.000000 30.139700 7.438990 24.048201 7.321960 -12.927200 -0.796282 5.262770 1.997910 -37.820000 0.000000 22.878099 0.000000 -19.442101 -4.176290 28.960501 5.585244 -1.476311 -3.649993 0.000000 0.000000 7.063860 -0.420874 -2.933624 7.778537 0.000000 0.000000 -25.689800 1.615792 6.186866 -0.849221 0.000000 0.000000 6.965620 8.015399 -6.942546 9.315746 0.000000 0.000000 -27.872200 
